<svg width="47" height="24" viewBox="0 0 47 24" fill="none" xmlns="http://www.w3.org/2000/svg">
<path d="M9.6873 7.24469C10.1395 7.08413 10.6219 6.99849 11.1223 6.99849C13.3131 6.99849 15.142 8.65552 15.5601 10.8585L18.6653 10.1841C17.9538 6.44187 14.8466 3.62451 11.1223 3.62451C10.2681 3.62451 9.45014 3.77223 8.68237 4.04626L9.6873 7.24469Z" fill="white"/>
<path d="M6.02324 17.9619L8.12353 15.4335C7.18694 14.5494 6.59605 13.2584 6.59605 11.8198C6.59605 10.3833 7.18694 9.09233 8.12353 8.2103L6.02324 5.67981C4.43144 7.18269 3.42651 9.37706 3.42651 11.8198C3.42651 14.2646 4.43144 16.459 6.02324 17.9619" fill="#D5D5D5"/>
<path d="M15.5601 12.7874C15.14 14.9882 13.3131 16.643 11.1243 16.643C10.6219 16.643 10.1375 16.5574 9.6873 16.3947L8.68237 19.5974C9.45014 19.8693 10.2702 20.017 11.1243 20.017C14.8446 20.017 17.9498 17.2039 18.6653 13.466L15.5601 12.7874Z" fill="#B5B5B5"/>
<path d="M21.3806 15.5384C21.2781 15.3628 21.1414 15.0824 21.057 14.8747C20.5646 13.6587 20.5425 12.3999 20.9565 11.1924C21.4127 9.86724 22.285 8.85461 23.4125 8.33653C24.8295 7.68785 26.3952 7.81416 27.7538 8.67264C28.616 9.19929 29.227 10.0128 29.6913 11.1646C29.7496 11.3123 29.8019 11.4686 29.8541 11.6035L21.3806 15.5384ZM24.2105 10.2911C23.2035 10.7514 22.685 11.7576 22.7935 12.9351L27.0544 10.9805C26.3208 10.0642 25.3681 9.76019 24.2105 10.2911V10.2911ZM27.585 14.5429C27.583 14.5429 27.583 14.545 27.583 14.545L27.4945 14.4808C27.2393 14.9196 26.8434 15.2772 26.3429 15.5084C25.3902 15.9494 24.5079 15.8359 23.8728 15.2429L23.8145 15.3371C23.8145 15.3371 23.8145 15.335 23.8125 15.335L22.7312 17.0584C23.0005 17.2575 23.2879 17.4244 23.5894 17.5593C24.7833 18.0881 26.0052 18.0624 27.2091 17.5058C28.0794 17.1033 28.7628 16.491 29.229 15.7139L27.585 14.5429ZM32.8146 5.80176V15.3799L34.2135 15.9837L33.4196 17.9575L31.876 17.2724C31.5303 17.1119 31.2932 16.8678 31.1163 16.5917C30.9455 16.3112 30.8188 15.9237 30.8188 15.4056V5.80176H32.8146ZM36.4364 12.9415C36.4364 12.1258 36.776 11.3937 37.3106 10.897L35.8756 9.19287C34.9028 10.1092 34.2898 11.4472 34.2898 12.9372C34.2878 14.4294 34.9008 15.7696 35.8716 16.6859L37.3046 14.9817C36.772 14.4829 36.4364 13.755 36.4364 12.9415V12.9415ZM38.9849 15.6582C38.7035 15.6582 38.4301 15.6069 38.1769 15.5169L37.4915 17.6856C37.9598 17.8526 38.4603 17.9447 38.9828 17.9447C41.254 17.9468 43.1493 16.2298 43.5894 13.9498L41.4831 13.4917C41.2439 14.7313 40.2169 15.6604 38.9849 15.6582V15.6582ZM38.9909 7.93833C38.4703 7.93833 37.9699 8.02824 37.5016 8.19309L38.1809 10.3639C38.4362 10.274 38.7075 10.2248 38.9889 10.2248C40.2229 10.2269 41.252 11.1603 41.4851 12.402L43.5914 11.9481C43.1593 9.66386 41.264 7.94047 38.9909 7.93833V7.93833Z" fill="white"/>
</svg>
