<svg width="42" height="23" viewBox="0 0 42 23" fill="none" xmlns="http://www.w3.org/2000/svg">
<g clip-path="url(#clip0_3602_245)">
<path d="M11.5314 0.441406H7.17945C5.25644 0.553326 3.68458 1.50672 3.23072 3.47277C2.99406 4.49811 2.86382 5.62421 2.67877 6.68709C1.73799 12.0915 0.903797 17.6449 0.00390625 22.9414H33.8858C36.5052 22.9414 38.3039 22.26 38.7898 19.7008C39.0156 18.512 39.2319 17.1656 39.4479 15.8595C40.29 10.767 41.1329 5.67484 41.9955 0.441406H11.5314Z" fill="#D9D9D9" fill-opacity="0.4"/>
<path d="M11.1921 8.43794C11.3741 8.2836 11.6086 7.58073 11.3408 7.2881C11.2559 7.19545 11.1141 7.16857 10.9162 7.20976C10.7326 7.24791 10.627 7.32473 10.5553 7.44497C10.44 7.63826 10.3343 8.2214 10.5128 8.43804C10.6868 8.64889 11.0763 8.53605 11.1921 8.43794V8.43794ZM8.60218 7.2881C8.47177 8.32967 8.32488 9.35095 8.17758 10.3717C7.23186 10.384 6.26627 10.4292 5.3541 10.3455C5.52638 9.34689 5.64994 8.28817 5.82115 7.2881H4.80215C4.43739 9.83556 4.10553 12.4237 3.69824 14.9188H4.73851C4.90164 13.639 5.0543 12.346 5.2692 11.1296C6.15615 11.1027 7.21917 11.0558 8.07149 11.1558C7.89575 12.4204 7.68341 13.6396 7.51954 14.9188H8.55981C8.89415 12.3337 9.24621 9.77072 9.6638 7.2881H8.60218V7.2881ZM23.3141 9.48326C22.5047 9.08084 21.8683 9.76088 21.5733 10.3979C21.6402 10.1145 21.6678 9.78259 21.722 9.48326H20.9153C20.718 11.366 20.4274 13.1336 20.1511 14.9188H21.064C21.1919 13.8592 21.2471 12.4307 21.5309 11.417C21.7578 10.607 22.3515 9.91694 23.2081 10.2934C23.2199 9.99456 23.2894 9.76646 23.3141 9.48326V9.48326ZM23.8235 13.6384C23.7393 13.3707 23.7177 12.9289 23.7387 12.593C23.7858 11.8379 24.0094 10.9186 24.3543 10.5024C24.8304 9.928 25.7702 10.0231 26.5198 10.3456C26.5429 10.0346 26.5937 9.75723 26.626 9.45718C25.3966 9.21001 24.23 9.36383 23.6115 10.1628C23.0059 10.9449 22.609 12.7425 22.8896 13.8736C23.218 15.1971 24.6907 15.2691 25.8829 14.7622C25.9357 14.4961 25.9636 14.1995 26.0103 13.926C25.3587 14.3425 24.1131 14.559 23.8235 13.6384V13.6384ZM34.0773 9.50934C33.2705 9.01275 32.5988 9.84601 32.3366 10.3455C32.4112 10.0892 32.4155 9.74596 32.4851 9.48316H31.6784C31.4609 11.3496 31.1988 13.161 30.893 14.9187H31.8271C31.833 14.1983 31.948 13.6654 32.0393 12.959C32.2345 11.4503 32.5212 9.79599 33.9501 10.2933C33.9974 10.0382 34.0171 9.7488 34.0773 9.50934ZM10.258 9.48326C10.2333 9.48763 10.235 9.52456 10.2368 9.5616C10.0356 11.4133 9.76337 13.1776 9.47256 14.9187H10.3854C10.6047 13.0545 10.856 11.2298 11.1709 9.48316L10.258 9.48326V9.48326ZM18.2827 9.37875C17.6231 9.44136 17.0655 9.67494 16.6693 10.1889C16.1833 10.8191 15.7898 12.2126 15.9051 13.4816C16.0696 15.292 17.9008 15.227 19.3654 14.7882C19.3904 14.4704 19.4529 14.1988 19.4928 13.8997C18.8895 14.1776 17.8419 14.5655 17.2212 14.0827C16.7526 13.7179 16.7499 12.7947 16.9027 11.9921C17.8871 11.9535 18.9102 11.9608 19.896 11.9921C19.9585 11.4232 20.1375 10.8031 19.9809 10.2412C19.7745 9.4995 19.0351 9.30732 18.2827 9.37875ZM19.1531 11.3648H17.0088C17.0767 10.758 17.5202 10.0911 18.219 10.0582C18.8766 10.0272 19.3474 10.3554 19.1531 11.3648V11.3648ZM14.8224 9.48326C14.0497 9.12599 13.1081 9.55246 12.6999 9.95813C12.7014 9.97599 12.6901 9.97843 12.6781 9.97975C12.685 9.97254 12.6926 9.96534 12.6999 9.95813C12.6998 9.95664 12.6997 9.95515 12.6995 9.95367C12.7063 9.77925 12.7562 9.65769 12.7631 9.48326H11.9776C11.6503 12.164 11.2621 14.7697 10.8525 17.3491H11.7654C11.8975 16.3446 11.9847 15.2847 12.1688 14.3439C12.3772 15.3334 13.7385 15.1444 14.3129 14.7621C15.498 13.973 16.4122 10.2183 14.8224 9.48326V9.48326ZM14.1006 13.8997C13.6122 14.5364 12.4115 14.5268 12.3173 13.4553C12.2763 12.9892 12.4174 12.5004 12.4873 12.0181C12.5578 11.53 12.6086 11.0616 12.6782 10.6331C13.1593 9.91004 14.5728 9.82267 14.7163 11.0251C14.8407 12.069 14.505 13.3723 14.1006 13.8997V13.8997ZM37.4739 7.13133C37.3957 7.97575 37.2911 8.7878 37.1556 9.5616C34.9164 8.68907 33.5432 10.7171 33.5679 13.2202C33.5728 13.7043 33.6404 14.1844 33.8862 14.5268C34.3103 15.1168 35.5238 15.2581 36.1367 14.762C36.2552 14.666 36.3765 14.4912 36.455 14.3701C36.5141 14.2789 36.6078 14.0399 36.6249 14.1087C36.5926 14.3738 36.5444 14.6196 36.5401 14.9187H37.368C37.5277 12.1011 38.0209 9.69462 38.387 7.13123H37.474V7.13133H37.4739ZM35.436 14.3177C34.8215 14.334 34.5159 13.8658 34.5018 13.0895C34.4773 11.7301 34.9618 10.2197 35.9455 10.0843C36.4035 10.0212 36.7351 10.1523 37.0707 10.2934C36.7626 11.8205 36.8738 14.2798 35.436 14.3177V14.3177ZM27.5599 9.48326C27.515 9.79376 27.446 10.0747 27.3901 10.3717C27.9288 10.2054 29.6061 9.69564 29.7678 10.5807C29.8214 10.8748 29.7289 11.1872 29.6616 11.417C28.1449 11.2402 26.9086 11.5504 26.5833 12.8804C26.3656 13.7713 26.6077 14.648 27.0717 14.8927C27.9651 15.364 29.0519 14.8242 29.4281 14.0827C29.389 14.3393 29.352 14.5988 29.3645 14.9188H30.1499C30.1583 13.9928 30.2678 13.2433 30.3835 12.41C30.482 11.7004 30.6676 10.998 30.6382 10.3717C30.5707 8.93746 28.6404 9.44481 27.5599 9.48326V9.48326ZM29.0459 13.8735C28.5755 14.4404 27.255 14.6014 27.3901 13.2463C27.5022 12.1208 28.4978 11.8817 29.5765 12.0441C29.4964 12.6598 29.4044 13.4415 29.0459 13.8735V13.8735Z" fill="#FCFCFC"/>
</g>
<defs>
<clipPath id="clip0_3602_245">
<rect width="42" height="22.5" fill="white" transform="translate(0 0.441406)"/>
</clipPath>
</defs>
</svg>
